<mxfile host="app.diagrams.net" agent="Mozilla/5.0 (Macintosh; Intel Mac OS X 10_15_7) AppleWebKit/537.36 (KHTML, like Gecko) Chrome/129.0.0.0 Safari/537.36" version="24.8.0">
  <diagram name="第 1 页" id="4OltFGKnqn2SeNBGY-Xo">
    <mxGraphModel dx="1026" dy="650" grid="1" gridSize="10" guides="1" tooltips="1" connect="1" arrows="1" fold="1" page="1" pageScale="1" pageWidth="827" pageHeight="1169" math="0" shadow="0">
      <root>
        <mxCell id="0" />
        <mxCell id="1" parent="0" />
        <mxCell id="uC9DRx_by4xYmF0WvetJ-3" value="" style="edgeStyle=orthogonalEdgeStyle;rounded=0;orthogonalLoop=1;jettySize=auto;html=1;" parent="1" source="uC9DRx_by4xYmF0WvetJ-1" target="uC9DRx_by4xYmF0WvetJ-2" edge="1">
          <mxGeometry relative="1" as="geometry" />
        </mxCell>
        <mxCell id="uC9DRx_by4xYmF0WvetJ-1" value="标签上线" style="ellipse;whiteSpace=wrap;html=1;" parent="1" vertex="1">
          <mxGeometry x="294" y="120" width="96" height="50" as="geometry" />
        </mxCell>
        <mxCell id="uC9DRx_by4xYmF0WvetJ-5" value="" style="edgeStyle=orthogonalEdgeStyle;rounded=0;orthogonalLoop=1;jettySize=auto;html=1;" parent="1" source="uC9DRx_by4xYmF0WvetJ-2" target="uC9DRx_by4xYmF0WvetJ-4" edge="1">
          <mxGeometry relative="1" as="geometry" />
        </mxCell>
        <mxCell id="uC9DRx_by4xYmF0WvetJ-6" value="不存在" style="edgeLabel;html=1;align=center;verticalAlign=middle;resizable=0;points=[];" parent="uC9DRx_by4xYmF0WvetJ-5" vertex="1" connectable="0">
          <mxGeometry x="-0.1139" y="-1" relative="1" as="geometry">
            <mxPoint as="offset" />
          </mxGeometry>
        </mxCell>
        <mxCell id="uC9DRx_by4xYmF0WvetJ-8" value="" style="edgeStyle=orthogonalEdgeStyle;rounded=0;orthogonalLoop=1;jettySize=auto;html=1;" parent="1" source="uC9DRx_by4xYmF0WvetJ-2" target="uC9DRx_by4xYmF0WvetJ-7" edge="1">
          <mxGeometry relative="1" as="geometry" />
        </mxCell>
        <mxCell id="uC9DRx_by4xYmF0WvetJ-2" value="校验标签是否存在" style="rhombus;whiteSpace=wrap;html=1;" parent="1" vertex="1">
          <mxGeometry x="283" y="235" width="118" height="80" as="geometry" />
        </mxCell>
        <mxCell id="uC9DRx_by4xYmF0WvetJ-4" value="返回不存在" style="whiteSpace=wrap;html=1;" parent="1" vertex="1">
          <mxGeometry x="84" y="245" width="120" height="60" as="geometry" />
        </mxCell>
        <mxCell id="uC9DRx_by4xYmF0WvetJ-10" value="" style="edgeStyle=orthogonalEdgeStyle;rounded=0;orthogonalLoop=1;jettySize=auto;html=1;" parent="1" source="uC9DRx_by4xYmF0WvetJ-7" target="uC9DRx_by4xYmF0WvetJ-9" edge="1">
          <mxGeometry relative="1" as="geometry" />
        </mxCell>
        <mxCell id="uC9DRx_by4xYmF0WvetJ-11" value="不符合" style="edgeLabel;html=1;align=center;verticalAlign=middle;resizable=0;points=[];" parent="uC9DRx_by4xYmF0WvetJ-10" vertex="1" connectable="0">
          <mxGeometry x="-0.0737" y="-2" relative="1" as="geometry">
            <mxPoint as="offset" />
          </mxGeometry>
        </mxCell>
        <mxCell id="uC9DRx_by4xYmF0WvetJ-13" value="" style="edgeStyle=orthogonalEdgeStyle;rounded=0;orthogonalLoop=1;jettySize=auto;html=1;" parent="1" source="uC9DRx_by4xYmF0WvetJ-7" target="uC9DRx_by4xYmF0WvetJ-12" edge="1">
          <mxGeometry relative="1" as="geometry" />
        </mxCell>
        <mxCell id="uC9DRx_by4xYmF0WvetJ-7" value="校验标签版本是否处于&lt;div&gt;下线或草稿状态&lt;/div&gt;" style="rhombus;whiteSpace=wrap;html=1;" parent="1" vertex="1">
          <mxGeometry x="267" y="390" width="150" height="60" as="geometry" />
        </mxCell>
        <mxCell id="uC9DRx_by4xYmF0WvetJ-9" value="返回失败信息" style="whiteSpace=wrap;html=1;" parent="1" vertex="1">
          <mxGeometry x="84" y="390" width="120" height="60" as="geometry" />
        </mxCell>
        <mxCell id="uC9DRx_by4xYmF0WvetJ-15" value="" style="edgeStyle=orthogonalEdgeStyle;rounded=0;orthogonalLoop=1;jettySize=auto;html=1;" parent="1" source="uC9DRx_by4xYmF0WvetJ-12" target="uC9DRx_by4xYmF0WvetJ-14" edge="1">
          <mxGeometry relative="1" as="geometry" />
        </mxCell>
        <mxCell id="uC9DRx_by4xYmF0WvetJ-12" value="写入标签审批表记录" style="shape=process;whiteSpace=wrap;html=1;backgroundOutline=1;" parent="1" vertex="1">
          <mxGeometry x="282" y="510" width="120" height="60" as="geometry" />
        </mxCell>
        <mxCell id="uC9DRx_by4xYmF0WvetJ-17" value="" style="edgeStyle=orthogonalEdgeStyle;rounded=0;orthogonalLoop=1;jettySize=auto;html=1;" parent="1" source="uC9DRx_by4xYmF0WvetJ-14" edge="1" target="Mzf36mk6sUA4yV3bFFoE-1">
          <mxGeometry relative="1" as="geometry">
            <mxPoint x="342" y="740" as="targetPoint" />
          </mxGeometry>
        </mxCell>
        <mxCell id="uC9DRx_by4xYmF0WvetJ-14" value="修改标签规则表，对应版本改为审批中" style="shape=process;whiteSpace=wrap;html=1;backgroundOutline=1;" parent="1" vertex="1">
          <mxGeometry x="282" y="620" width="120" height="60" as="geometry" />
        </mxCell>
        <mxCell id="Mzf36mk6sUA4yV3bFFoE-3" value="" style="edgeStyle=orthogonalEdgeStyle;rounded=0;orthogonalLoop=1;jettySize=auto;html=1;" edge="1" parent="1" source="Mzf36mk6sUA4yV3bFFoE-1" target="Mzf36mk6sUA4yV3bFFoE-2">
          <mxGeometry relative="1" as="geometry" />
        </mxCell>
        <mxCell id="Mzf36mk6sUA4yV3bFFoE-1" value="标签基础信息表将状态改为审批中" style="shape=process;whiteSpace=wrap;html=1;backgroundOutline=1;" vertex="1" parent="1">
          <mxGeometry x="282" y="710" width="120" height="60" as="geometry" />
        </mxCell>
        <mxCell id="Mzf36mk6sUA4yV3bFFoE-2" value="封装返回信息" style="whiteSpace=wrap;html=1;" vertex="1" parent="1">
          <mxGeometry x="282" y="800" width="120" height="60" as="geometry" />
        </mxCell>
      </root>
    </mxGraphModel>
  </diagram>
</mxfile>
